# xmcd
#
# Track frame offsets:
#	150
#	14827
#	29470
#	41522
#	51295
#	73200
#	88610
#	102795
#	118497
#	130325
#	140970
#	164895
#	180772
#	191577
#
# Disc length: 2744 seconds
#
# Revision: 0
# Processed by: cddbd v1.5.2PL0 Copyright (c) Steve Scherf et al.
# Submitted via: EasyCDDAExtractor 2010.6.0.0
#
DISCID=d70ab60e
DTITLE=Harry Bonanza and Band - Cowboys and Ladies
DYEAR=1992
DGENRE=Country
TTITLE0=Cowboys And Ladies
TTITLE1=Lovelight Or Taillight
TTITLE2=I'm A Ladies Man
TTITLE3=Daddy Is Rated X
TTITLE4=I've Never Seen An Angel
TTITLE5=Biggest Country Singer In The Land
TTITLE6=Guitar Rodeo
TTITLE7=Runaway Train
TTITLE8=Iron Will
TTITLE9=Yesterday's Wind
TTITLE10=Living For Today
TTITLE11=The Hurting's On Me
TTITLE12=Wildwest Weekend
TTITLE13=I save All My Loving For My Baby
EXTD=
EXTT0=
EXTT1=
EXTT2=
EXTT3=
EXTT4=
EXTT5=
EXTT6=
EXTT7=
EXTT8=
EXTT9=
EXTT10=
EXTT11=
EXTT12=
EXTT13=
PLAYORDER=
